<?xml version="1.0" encoding="UTF-8"?>
<svg width="64px" height="18px" viewBox="0 0 64 18" version="1.1" xmlns="http://www.w3.org/2000/svg" xmlns:xlink="http://www.w3.org/1999/xlink">
    <!-- Generator: Sketch 46 (44423) - http://www.bohemiancoding.com/sketch -->
    <title>logo</title>
    <desc>Created with Sketch.</desc>
    <defs></defs>
    <g id="website" stroke="none" stroke-width="1" fill="none" fill-rule="evenodd">
        <g id="logo">
            <g id="paper-triangle/logo">
                <g id="gitmoji-triangle">
                    <path d="M9,1 C4.581722,1 1,4.581722 1,9 C1,13.418278 4.581722,17 9,17 L55,17 C59.418278,17 63,13.418278 63,9 C63,4.581722 59.418278,1 55,1 L9,1 Z" id="background" fill="#FFFFFF"></path>
                    <path d="M9,0 L55,0 C59.9705627,-4.46579124e-15 64,4.02943725 64,9 C64,13.9705627 59.9705627,18 55,18 L9,18 C4.02943725,18 6.08718376e-16,13.9705627 0,9 C-6.08718376e-16,4.02943725 4.02943725,9.13077564e-16 9,0 Z M9,1 C4.581722,1 1,4.581722 1,9 C1,13.418278 4.581722,17 9,17 L55,17 C59.418278,17 63,13.418278 63,9 C63,4.581722 59.418278,1 55,1 L9,1 Z" id="border" fill="#E45454" fill-rule="nonzero"></path>
                    <path d="M14.784,10.672 C14.784,11.4080037 14.5986685,11.9666648 14.228,12.348 C13.8573315,12.7293352 13.2933371,12.92 12.536,12.92 C12.1893316,12.92 11.8480017,12.8813337 11.512,12.804 C11.1759983,12.7266663 10.8666681,12.5760011 10.584,12.352 L11.248,11.36 C11.4346676,11.5146674 11.6306656,11.6373329 11.836,11.728 C12.0413344,11.8186671 12.2666654,11.864 12.512,11.864 C12.8800018,11.864 13.1506658,11.7746676 13.324,11.596 C13.4973342,11.4173324 13.584,11.1893347 13.584,10.912 L13.584,10.536 L13.568,10.536 C13.4293326,10.7226676 13.2573344,10.8546663 13.052,10.932 C12.8466656,11.0093337 12.6533342,11.048 12.472,11.048 C12.1839986,11.048 11.9226678,10.9986672 11.688,10.9 C11.4533322,10.8013328 11.2520008,10.6626676 11.084,10.484 C10.9159992,10.3053324 10.7866671,10.0933346 10.696,9.848 C10.6053329,9.60266544 10.56,9.3333348 10.56,9.04 C10.56,8.78399872 10.6013329,8.53333456 10.684,8.288 C10.7666671,8.04266544 10.8839992,7.8266676 11.036,7.64 C11.1880008,7.4533324 11.3733322,7.30266724 11.592,7.188 C11.8106678,7.07333276 12.0586653,7.016 12.336,7.016 C12.5066675,7.016 12.662666,7.03466648 12.804,7.072 C12.945334,7.10933352 13.0719994,7.15733304 13.184,7.216 C13.2960006,7.27466696 13.3919996,7.33999964 13.472,7.412 C13.5520004,7.48400036 13.6159998,7.55466632 13.664,7.624 L13.68,7.624 L13.68,7.112 L14.784,7.112 L14.784,10.672 Z M11.76,9.032 C11.76,9.16000064 11.7839998,9.28133276 11.832,9.396 C11.8800002,9.51066724 11.9479996,9.61199956 12.036,9.7 C12.1240004,9.78800044 12.2253328,9.8586664 12.34,9.912 C12.4546672,9.9653336 12.5813326,9.992 12.72,9.992 C12.853334,9.992 12.9786661,9.9653336 13.096,9.912 C13.2133339,9.8586664 13.3159996,9.78800044 13.404,9.7 C13.4920004,9.61199956 13.5599998,9.51066724 13.608,9.396 C13.6560002,9.28133276 13.68,9.16000064 13.68,9.032 C13.68,8.90399936 13.6560002,8.78266724 13.608,8.668 C13.5599998,8.55333276 13.4920004,8.45200044 13.404,8.364 C13.3159996,8.27599956 13.2133339,8.2053336 13.096,8.152 C12.9786661,8.0986664 12.853334,8.072 12.72,8.072 C12.5813326,8.072 12.4546672,8.0986664 12.34,8.152 C12.2253328,8.2053336 12.1240004,8.27599956 12.036,8.364 C11.9479996,8.45200044 11.8800002,8.55333276 11.832,8.668 C11.7839998,8.78266724 11.76,8.90399936 11.76,9.032 Z M15.76,7.112 L16.96,7.112 L16.96,11 L15.76,11 L15.76,7.112 Z M15.664,5.888 C15.664,5.69599904 15.7319993,5.53200068 15.868,5.396 C16.0040007,5.25999932 16.167999,5.192 16.36,5.192 C16.552001,5.192 16.7159993,5.25999932 16.852,5.396 C16.9880007,5.53200068 17.056,5.69599904 17.056,5.888 C17.056,6.08000096 16.9880007,6.24399932 16.852,6.38 C16.7159993,6.51600068 16.552001,6.584 16.36,6.584 C16.167999,6.584 16.0040007,6.51600068 15.868,6.38 C15.7319993,6.24399932 15.664,6.08000096 15.664,5.888 Z M20.472,8.072 L19.416,8.072 L19.416,9.368 C19.416,9.4746672 19.4213333,9.57199956 19.432,9.66 C19.4426667,9.74800044 19.4666665,9.82399968 19.504,9.888 C19.5413335,9.95200032 19.5986663,10.0013332 19.676,10.036 C19.7533337,10.0706668 19.8559994,10.088 19.984,10.088 C20.0480003,10.088 20.1319995,10.0813334 20.236,10.068 C20.3400005,10.0546666 20.4186664,10.0240002 20.472,9.976 L20.472,10.976 C20.338666,11.0240002 20.2000007,11.0559999 20.056,11.072 C19.9119993,11.0880001 19.7706674,11.096 19.632,11.096 C19.4293323,11.096 19.2426675,11.0746669 19.072,11.032 C18.9013325,10.9893331 18.7520006,10.9213338 18.624,10.828 C18.4959994,10.7346662 18.3960004,10.6133341 18.324,10.464 C18.2519996,10.3146659 18.216,10.1333344 18.216,9.92 L18.216,8.072 L17.448,8.072 L17.448,7.112 L18.216,7.112 L18.216,5.96 L19.416,5.96 L19.416,7.112 L20.472,7.112 L20.472,8.072 Z M21.08,7.112 L22.232,7.112 L22.232,7.64 L22.248,7.64 C22.2853335,7.56533296 22.3386663,7.49066704 22.408,7.416 C22.4773337,7.34133296 22.5599995,7.27466696 22.656,7.216 C22.7520005,7.15733304 22.8613327,7.10933352 22.984,7.072 C23.1066673,7.03466648 23.2399993,7.016 23.384,7.016 C23.6560014,7.016 23.8973323,7.07199944 24.108,7.184 C24.3186677,7.29600056 24.4773328,7.4719988 24.584,7.712 C24.7226674,7.46133208 24.8906657,7.2826672 25.088,7.176 C25.2853343,7.0693328 25.5279986,7.016 25.816,7.016 C26.0773346,7.016 26.2973324,7.05999956 26.476,7.148 C26.6546676,7.23600044 26.7959995,7.35599924 26.9,7.508 C27.0040005,7.66000076 27.0786664,7.83866564 27.124,8.044 C27.1693336,8.24933436 27.192,8.46933216 27.192,8.704 L27.192,11 L25.992,11 L25.992,8.736 C25.992,8.55466576 25.9533337,8.39866732 25.876,8.268 C25.7986663,8.13733268 25.6613343,8.072 25.464,8.072 C25.3253326,8.072 25.2093338,8.09466644 25.116,8.14 C25.0226662,8.18533356 24.9480003,8.2479996 24.892,8.328 C24.8359997,8.4080004 24.7960001,8.5013328 24.772,8.608 C24.7479999,8.7146672 24.736,8.82666608 24.736,8.944 L24.736,11 L23.536,11 L23.536,8.944 C23.536,8.87466632 23.5333334,8.78933384 23.528,8.688 C23.5226666,8.58666616 23.5040002,8.49066712 23.472,8.4 C23.4399998,8.30933288 23.3880004,8.23200032 23.316,8.168 C23.2439996,8.10399968 23.1386674,8.072 23,8.072 C22.8453326,8.072 22.7200005,8.09999972 22.624,8.156 C22.5279995,8.21200028 22.4546669,8.2866662 22.404,8.38 C22.3533331,8.4733338 22.3200001,8.57866608 22.304,8.696 C22.2879999,8.81333392 22.28,8.93599936 22.28,9.064 L22.28,11 L21.08,11 L21.08,7.112 Z M27.896,9.056 C27.896,8.74666512 27.9519994,8.46666792 28.064,8.216 C28.1760006,7.96533208 28.3293324,7.75066756 28.524,7.572 C28.7186676,7.39333244 28.9479987,7.25600048 29.212,7.16 C29.4760013,7.06399952 29.7573318,7.016 30.056,7.016 C30.3546682,7.016 30.6359987,7.06399952 30.9,7.16 C31.1640013,7.25600048 31.3933324,7.39333244 31.588,7.572 C31.7826676,7.75066756 31.9359994,7.96533208 32.048,8.216 C32.1600006,8.46666792 32.216,8.74666512 32.216,9.056 C32.216,9.36533488 32.1600006,9.64533208 32.048,9.896 C31.9359994,10.1466679 31.7826676,10.3613324 31.588,10.54 C31.3933324,10.7186676 31.1640013,10.8559995 30.9,10.952 C30.6359987,11.0480005 30.3546682,11.096 30.056,11.096 C29.7573318,11.096 29.4760013,11.0480005 29.212,10.952 C28.9479987,10.8559995 28.7186676,10.7186676 28.524,10.54 C28.3293324,10.3613324 28.1760006,10.1466679 28.064,9.896 C27.9519994,9.64533208 27.896,9.36533488 27.896,9.056 Z M29.096,9.056 C29.096,9.3493348 29.1799992,9.58666576 29.348,9.768 C29.5160008,9.94933424 29.7519985,10.04 30.056,10.04 C30.3600015,10.04 30.5959992,9.94933424 30.764,9.768 C30.9320008,9.58666576 31.016,9.3493348 31.016,9.056 C31.016,8.7626652 30.9320008,8.52533424 30.764,8.344 C30.5959992,8.16266576 30.3600015,8.072 30.056,8.072 C29.7519985,8.072 29.5160008,8.16266576 29.348,8.344 C29.1799992,8.52533424 29.096,8.7626652 29.096,9.056 Z M34.136,11.288 C34.136,11.5386679 34.1120002,11.763999 34.064,11.964 C34.0159998,12.164001 33.9360006,12.334666 33.824,12.476 C33.7119994,12.617334 33.5640009,12.7266663 33.38,12.804 C33.1959991,12.8813337 32.9680014,12.92 32.696,12.92 C32.6053329,12.92 32.5120005,12.916 32.416,12.908 C32.3199995,12.9 32.2266671,12.8826668 32.136,12.856 L32.2,11.792 C32.2960005,11.8400002 32.3999994,11.864 32.512,11.864 C32.6133338,11.864 32.693333,11.8373336 32.752,11.784 C32.810667,11.7306664 32.8533332,11.6640004 32.88,11.584 C32.9066668,11.5039996 32.9226666,11.4186671 32.928,11.328 C32.9333334,11.2373329 32.936,11.154667 32.936,11.08 L32.936,7.112 L34.136,7.112 L34.136,11.288 Z M32.84,5.888 C32.84,5.69599904 32.9079993,5.53200068 33.044,5.396 C33.1800007,5.25999932 33.343999,5.192 33.536,5.192 C33.728001,5.192 33.8919993,5.25999932 34.028,5.396 C34.1640007,5.53200068 34.232,5.69599904 34.232,5.888 C34.232,6.08000096 34.1640007,6.24399932 34.028,6.38 C33.8919993,6.51600068 33.728001,6.584 33.536,6.584 C33.343999,6.584 33.1800007,6.51600068 33.044,6.38 C32.9079993,6.24399932 32.84,6.08000096 32.84,5.888 Z M35.016,7.112 L36.216,7.112 L36.216,11 L35.016,11 L35.016,7.112 Z M34.92,5.888 C34.92,5.69599904 34.9879993,5.53200068 35.124,5.396 C35.2600007,5.25999932 35.423999,5.192 35.616,5.192 C35.808001,5.192 35.9719993,5.25999932 36.108,5.396 C36.2440007,5.53200068 36.312,5.69599904 36.312,5.888 C36.312,6.08000096 36.2440007,6.24399932 36.108,6.38 C35.9719993,6.51600068 35.808001,6.584 35.616,6.584 C35.423999,6.584 35.2600007,6.51600068 35.124,6.38 C34.9879993,6.24399932 34.92,6.08000096 34.92,5.888 Z M37.104,10.312 C37.104,10.2106662 37.1226665,10.1146671 37.16,10.024 C37.1973335,9.93333288 37.249333,9.854667 37.316,9.788 C37.382667,9.721333 37.4613329,9.66933352 37.552,9.632 C37.6426671,9.59466648 37.7386662,9.576 37.84,9.576 C37.9413338,9.576 38.0373329,9.59466648 38.128,9.632 C38.2186671,9.66933352 38.297333,9.721333 38.364,9.788 C38.430667,9.854667 38.4826665,9.93333288 38.52,10.024 C38.5573335,10.1146671 38.576,10.2106662 38.576,10.312 C38.576,10.4133338 38.5573335,10.5093329 38.52,10.6 C38.4826665,10.6906671 38.430667,10.769333 38.364,10.836 C38.297333,10.902667 38.2186671,10.9546665 38.128,10.992 C38.0373329,11.0293335 37.9413338,11.048 37.84,11.048 C37.7386662,11.048 37.6426671,11.0293335 37.552,10.992 C37.4613329,10.9546665 37.382667,10.902667 37.316,10.836 C37.249333,10.769333 37.1973335,10.6906671 37.16,10.6 C37.1226665,10.5093329 37.104,10.4133338 37.104,10.312 Z M42.08,8.368 C42.021333,8.28266624 41.9386672,8.21200028 41.832,8.156 C41.7253328,8.09999972 41.6106673,8.072 41.488,8.072 C41.1839985,8.072 40.9480008,8.16266576 40.78,8.344 C40.6119992,8.52533424 40.528,8.7626652 40.528,9.056 C40.528,9.3493348 40.6119992,9.58666576 40.78,9.768 C40.9480008,9.94933424 41.1839985,10.04 41.488,10.04 C41.621334,10.04 41.7359995,10.010667 41.832,9.952 C41.9280005,9.89333304 42.0106663,9.8240004 42.08,9.744 L42.872,10.576 C42.6853324,10.768001 42.4653346,10.9026663 42.212,10.98 C41.9586654,11.0573337 41.7173345,11.096 41.488,11.096 C41.1893318,11.096 40.9080013,11.0480005 40.644,10.952 C40.3799987,10.8559995 40.1506676,10.7186676 39.956,10.54 C39.7613324,10.3613324 39.6080006,10.1466679 39.496,9.896 C39.3839994,9.64533208 39.328,9.36533488 39.328,9.056 C39.328,8.74666512 39.3839994,8.46666792 39.496,8.216 C39.6080006,7.96533208 39.7613324,7.75066756 39.956,7.572 C40.1506676,7.39333244 40.3799987,7.25600048 40.644,7.16 C40.9080013,7.06399952 41.1893318,7.016 41.488,7.016 C41.7173345,7.016 41.9586654,7.05466628 42.212,7.132 C42.4653346,7.20933372 42.6853324,7.34399904 42.872,7.536 L42.08,8.368 Z M43.16,9.056 C43.16,8.74666512 43.2159994,8.46666792 43.328,8.216 C43.4400006,7.96533208 43.5933324,7.75066756 43.788,7.572 C43.9826676,7.39333244 44.2119987,7.25600048 44.476,7.16 C44.7400013,7.06399952 45.0213318,7.016 45.32,7.016 C45.6186682,7.016 45.8999987,7.06399952 46.164,7.16 C46.4280013,7.25600048 46.6573324,7.39333244 46.852,7.572 C47.0466676,7.75066756 47.1999994,7.96533208 47.312,8.216 C47.4240006,8.46666792 47.48,8.74666512 47.48,9.056 C47.48,9.36533488 47.4240006,9.64533208 47.312,9.896 C47.1999994,10.1466679 47.0466676,10.3613324 46.852,10.54 C46.6573324,10.7186676 46.4280013,10.8559995 46.164,10.952 C45.8999987,11.0480005 45.6186682,11.096 45.32,11.096 C45.0213318,11.096 44.7400013,11.0480005 44.476,10.952 C44.2119987,10.8559995 43.9826676,10.7186676 43.788,10.54 C43.5933324,10.3613324 43.4400006,10.1466679 43.328,9.896 C43.2159994,9.64533208 43.16,9.36533488 43.16,9.056 Z M44.36,9.056 C44.36,9.3493348 44.4439992,9.58666576 44.612,9.768 C44.7800008,9.94933424 45.0159985,10.04 45.32,10.04 C45.6240015,10.04 45.8599992,9.94933424 46.028,9.768 C46.1960008,9.58666576 46.28,9.3493348 46.28,9.056 C46.28,8.7626652 46.1960008,8.52533424 46.028,8.344 C45.8599992,8.16266576 45.6240015,8.072 45.32,8.072 C45.0159985,8.072 44.7800008,8.16266576 44.612,8.344 C44.4439992,8.52533424 44.36,8.7626652 44.36,9.056 Z M48.184,7.112 L49.336,7.112 L49.336,7.64 L49.352,7.64 C49.3893335,7.56533296 49.4426663,7.49066704 49.512,7.416 C49.5813337,7.34133296 49.6639995,7.27466696 49.76,7.216 C49.8560005,7.15733304 49.9653327,7.10933352 50.088,7.072 C50.2106673,7.03466648 50.3439993,7.016 50.488,7.016 C50.7600014,7.016 51.0013323,7.07199944 51.212,7.184 C51.4226677,7.29600056 51.5813328,7.4719988 51.688,7.712 C51.8266674,7.46133208 51.9946657,7.2826672 52.192,7.176 C52.3893343,7.0693328 52.6319986,7.016 52.92,7.016 C53.1813346,7.016 53.4013324,7.05999956 53.58,7.148 C53.7586676,7.23600044 53.8999995,7.35599924 54.004,7.508 C54.1080005,7.66000076 54.1826664,7.83866564 54.228,8.044 C54.2733336,8.24933436 54.296,8.46933216 54.296,8.704 L54.296,11 L53.096,11 L53.096,8.736 C53.096,8.55466576 53.0573337,8.39866732 52.98,8.268 C52.9026663,8.13733268 52.7653343,8.072 52.568,8.072 C52.4293326,8.072 52.3133338,8.09466644 52.22,8.14 C52.1266662,8.18533356 52.0520003,8.2479996 51.996,8.328 C51.9399997,8.4080004 51.9000001,8.5013328 51.876,8.608 C51.8519999,8.7146672 51.84,8.82666608 51.84,8.944 L51.84,11 L50.64,11 L50.64,8.944 C50.64,8.87466632 50.6373334,8.78933384 50.632,8.688 C50.6266666,8.58666616 50.6080002,8.49066712 50.576,8.4 C50.5439998,8.30933288 50.4920004,8.23200032 50.42,8.168 C50.3479996,8.10399968 50.2426674,8.072 50.104,8.072 C49.9493326,8.072 49.8240005,8.09999972 49.728,8.156 C49.6319995,8.21200028 49.5586669,8.2866662 49.508,8.38 C49.4573331,8.4733338 49.4240001,8.57866608 49.408,8.696 C49.3919999,8.81333392 49.384,8.93599936 49.384,9.064 L49.384,11 L48.184,11 L48.184,7.112 Z" id="gitmoji.com" fill="#24292E"></path>
                </g>
            </g>
        </g>
    </g>
</svg>